<svg width="72" height="71" viewBox="0 0 72 71" fill="none" xmlns="http://www.w3.org/2000/svg">
<ellipse cx="35.3966" cy="35" rx="35.3966" ry="35" transform="matrix(0.99998 -0.00633815 0.0064826 0.999979 0.60907 0.44873)" fill="white"/>
<path d="M14.9605 60.4C14.7605 60.4 14.6605 60.34 14.6605 60.22C14.6605 60.14 14.7205 60.04 14.8405 59.92C16.4805 58.16 18.2205 56.18 20.0605 53.98C21.8605 51.74 23.7005 49.4 25.5805 46.96C23.9405 46.44 22.5805 45.84 21.5005 45.16C20.4205 44.48 19.8805 43.64 19.8805 42.64C19.8805 42.2 20.0405 41.96 20.3605 41.92C20.7205 41.84 21.1005 41.8 21.5005 41.8C22.5405 41.8 23.6205 41.96 24.7405 42.28C25.9005 42.6 27.0605 42.98 28.2205 43.42C31.5805 38.9 34.7205 34.42 37.6405 29.98C37.1605 26.1 36.8205 22.52 36.6206 19.24C36.4206 15.96 36.3206 13.42 36.3206 11.62C36.3206 11.14 36.3206 10.72 36.3206 10.36C36.3206 10 36.3406 9.72 36.3805 9.52C36.5005 8.56 36.6005 7.78 36.6805 7.18C36.7605 6.58 37.1605 6.28 37.8806 6.28C38.2805 6.28 38.7205 6.32 39.2005 6.4C39.7205 6.48 40.1805 6.62 40.5805 6.82C40.6205 6.78 40.7006 6.76 40.8205 6.76C40.8605 6.76 40.8805 6.78 40.8805 6.82C40.9205 6.82 40.9605 6.82 41.0005 6.82C42.2405 7.42 43.2806 8.32 44.1206 9.52C44.9606 10.68 45.3806 12.24 45.3806 14.2C45.3806 15.72 45.0605 17.5 44.4205 19.54C43.7805 21.58 42.7405 23.94 41.3005 26.62C41.3005 29.9 41.4205 33.12 41.6605 36.28C41.9006 39.44 42.2606 42.36 42.7406 45.04C42.8206 45.6 42.9206 46.14 43.0405 46.66C43.1605 47.18 43.2605 47.68 43.3405 48.16C44.1405 48.08 45.0806 47.94 46.1606 47.74C47.2806 47.54 48.3806 47.26 49.4605 46.9C50.5405 46.5 51.4406 46.02 52.1606 45.46C52.9206 44.9 53.3005 44.26 53.3005 43.54C53.3005 43.34 53.3606 43.24 53.4806 43.24C53.6005 43.24 53.7405 43.4 53.9005 43.72C54.0605 44 54.1405 44.38 54.1405 44.86C54.1405 46.7 51.5806 48 46.4606 48.76C45.9405 48.84 45.4206 48.98 44.9006 49.18C44.3806 49.38 44.0005 49.64 43.7605 49.96C44.3205 52.04 44.8805 53.66 45.4405 54.82C46.0005 55.98 46.5405 57.02 47.0605 57.94C47.0605 58.06 46.9406 58.12 46.7006 58.12C46.4205 58.12 46.0405 58 45.5605 57.76C45.0805 57.52 44.6806 57.14 44.3606 56.62C44.0806 56.06 43.8006 55.5 43.5206 54.94C43.2405 54.34 42.9605 53.72 42.6805 53.08C41.6405 51.56 40.7405 50.52 39.9805 49.96C39.2605 49.36 38.8005 49.04 38.6005 49C38.6805 49 38.1405 48.96 36.9805 48.88C35.8605 48.8 34.4205 48.64 32.6605 48.4C30.9405 48.16 29.2005 47.84 27.4405 47.44C24.6405 51.28 22.1605 54.4 20.0005 56.8C17.8005 59.2 16.1205 60.4 14.9605 60.4ZM41.3005 23.86C42.4205 21.74 43.2006 19.92 43.6405 18.4C44.1206 16.88 44.3606 15.56 44.3606 14.44C44.3606 13.24 44.1206 12.24 43.6405 11.44C43.2006 10.64 42.6406 9.98 41.9605 9.46C41.8006 11.66 41.6406 13.98 41.4806 16.42C41.3605 18.86 41.3005 21.34 41.3005 23.86ZM41.0606 48.04C40.3805 45.56 39.7805 42.96 39.2606 40.24C38.7405 37.52 38.3005 34.82 37.9405 32.14C36.5405 34.26 35.1605 36.32 33.8005 38.32C32.4405 40.32 31.1205 42.24 29.8405 44.08C31.6805 44.84 33.5405 45.62 35.4205 46.42C37.3405 47.22 39.2206 47.76 41.0606 48.04Z" fill="black"/>
</svg>
