<svg width="41" height="40" viewBox="0 0 41 40" fill="none" xmlns="http://www.w3.org/2000/svg">
<path fill-rule="evenodd" clip-rule="evenodd" d="M17.5988 8.33333C15.3841 8.33333 13.26 9.2113 11.6939 10.7741C10.1279 12.3369 9.24804 14.4565 9.24804 16.6667C9.24804 18.8768 10.1279 20.9964 11.6939 22.5592C13.26 24.122 15.3841 25 17.5988 25C19.8136 25 21.9377 24.122 23.5038 22.5592C25.0698 20.9964 25.9496 18.8768 25.9496 16.6667C25.9496 14.4565 25.0698 12.3369 23.5038 10.7741C21.9377 9.2113 19.8136 8.33333 17.5988 8.33333ZM5.90772 16.6667C5.90772 14.8188 6.34759 12.9973 7.19112 11.3522C8.03464 9.7072 9.25769 8.28564 10.7595 7.20462C12.2614 6.1236 13.9991 5.41405 15.8295 5.13439C17.66 4.85474 19.5308 5.01297 21.288 5.59608C23.0451 6.17919 24.6384 7.17048 25.9365 8.48832C27.2346 9.80617 28.2004 11.4129 28.7544 13.1761C29.3085 14.9394 29.4349 16.8087 29.1232 18.6303C28.8115 20.4518 28.0707 22.1734 26.9618 23.6533L35.4813 32.1533C35.7946 32.4658 35.9708 32.8898 35.9709 33.3319C35.9711 33.774 35.7953 34.1981 35.4821 34.5108C35.1689 34.8236 34.7441 34.9993 34.301 34.9995C33.858 34.9997 33.433 34.8242 33.1196 34.5117L24.6018 26.0117C22.864 27.3089 20.7987 28.0978 18.6371 28.2902C16.4755 28.4825 14.3029 28.0706 12.3626 27.1007C10.4222 26.1307 8.79071 24.6409 7.6507 22.7982C6.51069 20.9554 5.90717 18.8323 5.90772 16.6667V16.6667Z" fill="white"/>
</svg>
