<svg width="41" height="40" viewBox="0 0 41 40" fill="none" xmlns="http://www.w3.org/2000/svg">
<path fill-rule="evenodd" clip-rule="evenodd" d="M14.16 15C14.16 13.2319 14.8639 11.5362 16.1167 10.2859C17.3696 9.03571 19.0688 8.33333 20.8407 8.33333C22.6125 8.33333 24.3117 9.03571 25.5646 10.2859C26.8174 11.5362 27.5213 13.2319 27.5213 15C27.5213 16.7681 26.8174 18.4638 25.5646 19.714C24.3117 20.9643 22.6125 21.6667 20.8407 21.6667C19.0688 21.6667 17.3696 20.9643 16.1167 19.714C14.8639 18.4638 14.16 16.7681 14.16 15V15ZM27.2273 22.705C28.8165 21.3931 29.9613 19.6238 30.5056 17.6386C31.0498 15.6534 30.967 13.549 30.2684 11.6125C29.5697 9.67598 28.2894 8.00177 26.6019 6.81832C24.9145 5.63486 22.9023 4.9998 20.8398 4.9998C18.7773 4.9998 16.7651 5.63486 15.0777 6.81832C13.3903 8.00177 12.1099 9.67598 11.4113 11.6125C10.7126 13.549 10.6298 15.6534 11.174 17.6386C11.7183 19.6238 12.8631 21.3931 14.4523 22.705C9.12614 24.5767 5.8092 28.745 5.8092 33.3333C5.8092 33.7754 5.98517 34.1993 6.29838 34.5118C6.6116 34.8244 7.03641 35 7.47936 35C7.92232 35 8.34713 34.8244 8.66035 34.5118C8.97356 34.1993 9.14953 33.7754 9.14953 33.3333C9.14953 29.55 13.0828 25 20.8407 25C28.5985 25 32.5318 29.55 32.5318 33.3333C32.5318 33.7754 32.7077 34.1993 33.021 34.5118C33.3342 34.8244 33.759 35 34.2019 35C34.6449 35 35.0697 34.8244 35.3829 34.5118C35.6961 34.1993 35.8721 33.7754 35.8721 33.3333C35.8721 28.745 32.5585 24.5767 27.2273 22.705Z" fill="white"/>
</svg>
