<svg width="60" height="60" viewBox="0 0 60 60" fill="none" xmlns="http://www.w3.org/2000/svg">
<path d="M42.1002 29.0748C43.1016 29.0872 44.0953 28.8989 45.0228 28.521C45.9502 28.1432 46.7926 27.5834 47.5002 26.8748L54.5752 19.7998C55.0408 19.3314 55.3022 18.6977 55.3022 18.0373C55.3022 17.3768 55.0408 16.7432 54.5752 16.2748C54.3428 16.0405 54.0663 15.8545 53.7617 15.7276C53.457 15.6006 53.1302 15.5353 52.8002 15.5353C52.4702 15.5353 52.1434 15.6006 51.8388 15.7276C51.5341 15.8545 51.2576 16.0405 51.0252 16.2748L43.8752 23.3248C43.6428 23.5591 43.3663 23.7451 43.0617 23.872C42.757 23.9989 42.4302 24.0643 42.1002 24.0643C41.7702 24.0643 41.4434 23.9989 41.1388 23.872C40.8341 23.7451 40.5576 23.5591 40.3252 23.3248L49.1752 14.4998C49.4083 14.2667 49.5932 13.99 49.7194 13.6854C49.8455 13.3808 49.9104 13.0544 49.9104 12.7248C49.9104 12.3951 49.8455 12.0687 49.7194 11.7642C49.5932 11.4596 49.4083 11.1829 49.1752 10.9498C48.9421 10.7167 48.6654 10.5318 48.3608 10.4056C48.0563 10.2795 47.7299 10.2146 47.4002 10.2146C47.0706 10.2146 46.7441 10.2795 46.4396 10.4056C46.135 10.5318 45.8583 10.7167 45.6252 10.9498L36.8002 19.7998C36.3346 19.3314 36.0732 18.6977 36.0732 18.0373C36.0732 17.3768 36.3346 16.7432 36.8002 16.2748L43.8752 9.19978C44.1083 8.96668 44.2932 8.68996 44.4194 8.3854C44.5455 8.08085 44.6104 7.75443 44.6104 7.42478C44.6104 7.09513 44.5455 6.76871 44.4194 6.46416C44.2932 6.1596 44.1083 5.88288 43.8752 5.64978C43.6421 5.41668 43.3654 5.23178 43.0608 5.10563C42.7563 4.97948 42.4299 4.91455 42.1002 4.91455C41.7706 4.91455 41.4441 4.97948 41.1396 5.10563C40.835 5.23178 40.5583 5.41668 40.3252 5.64978L33.2502 12.7248C31.8457 14.131 31.0568 16.0373 31.0568 18.0248C31.0568 20.0123 31.8457 21.9185 33.2502 23.3248L30.0002 26.5498L9.32521 5.79978L9.07521 5.64978C8.94741 5.53828 8.80429 5.44567 8.65021 5.37478L8.20021 5.19978L7.90021 4.99978H7.72521H7.22521C7.07616 4.97595 6.92427 4.97595 6.77521 4.99978C6.62387 5.05487 6.48085 5.13058 6.35021 5.22478L5.95021 5.47478H5.77521L5.62521 5.72478C5.5194 5.85678 5.42726 5.99917 5.35021 6.14978C5.277 6.30223 5.2184 6.46127 5.17521 6.62478C5.17521 6.62478 5.17521 6.79978 5.17521 6.89978C4.56855 11.1283 4.95534 15.44 6.30491 19.4931C7.65447 23.5461 9.92971 27.229 12.9502 30.2498L19.5502 36.8248L6.02521 50.3248C5.79089 50.5572 5.60491 50.8337 5.47798 51.1383C5.35106 51.443 5.28572 51.7698 5.28572 52.0998C5.28572 52.4298 5.35106 52.7566 5.47798 53.0612C5.60491 53.3659 5.79089 53.6424 6.02521 53.8748C6.25881 54.1065 6.53585 54.2898 6.84045 54.4142C7.14504 54.5386 7.4712 54.6017 7.80021 54.5998C8.12923 54.6017 8.45539 54.5386 8.75998 54.4142C9.06457 54.2898 9.34161 54.1065 9.57521 53.8748L24.7502 38.9248L31.8252 31.8498L36.8252 26.8498C38.2202 28.2598 40.1168 29.0598 42.1002 29.0748ZM22.9752 33.6248L16.4002 27.0248C12.7964 23.3716 10.5398 18.6029 10.0002 13.4998L26.5252 29.9998L22.9752 33.6248ZM38.5752 35.0498C38.1045 34.5757 37.4646 34.3081 36.7966 34.3057C36.1285 34.3034 35.4868 34.5665 35.0127 35.0373C34.5386 35.508 34.271 36.1478 34.2686 36.8159C34.2663 37.484 34.5295 38.1257 35.0002 38.5998L50.7502 54.3498C51.2277 54.7843 51.8548 55.0172 52.5002 54.9998C52.8292 55.0017 53.1554 54.9386 53.46 54.8142C53.7646 54.6898 54.0416 54.5065 54.2752 54.2748C54.5095 54.0424 54.6955 53.7659 54.8224 53.4612C54.9494 53.1566 55.0147 52.8298 55.0147 52.4998C55.0147 52.1698 54.9494 51.843 54.8224 51.5383C54.6955 51.2337 54.5095 50.9572 54.2752 50.7248L38.5752 35.0498Z" fill="#3E3E3E"/>
</svg>
