<svg width="60" height="60" viewBox="0 0 60 60" fill="none" xmlns="http://www.w3.org/2000/svg">
<path d="M50.4427 13.3536C47.7926 10.6966 44.2797 9.07491 40.5385 8.78149C38.2149 8.59924 35.8983 9.48892 33.7499 11.2498C32.4393 12.3239 31.1914 13.2672 30.0426 14.105C28.6186 13.0458 27.9143 12.4899 26.2499 11.2498C24.1964 9.71979 21.1387 8.51018 18.9625 8.75116C15.0223 9.18747 11.3938 11.1005 8.80761 14.105C6.22145 17.1095 4.86974 20.9824 5.02468 24.9436C5.17963 28.9048 6.82973 32.6602 9.64268 35.4536L25.1677 51.0036C26.4677 52.283 28.2186 53.0001 30.0427 53.0001C31.8667 53.0001 33.6176 52.283 34.9177 51.0036L50.4427 35.4536C53.3616 32.5167 55 28.5443 55 24.4036C55 20.2629 53.3616 16.2904 50.4427 13.3536ZM46.9177 32.0036L31.3927 47.5286C31.216 47.707 31.0058 47.8486 30.774 47.9452C30.5423 48.0418 30.2937 48.0916 30.0427 48.0916C29.7916 48.0916 29.543 48.0418 29.3113 47.9452C29.0796 47.8486 28.8693 47.707 28.6927 47.5286L13.1677 31.9286C11.2071 29.9244 10.1092 27.2322 10.1092 24.4286C10.1092 21.6249 11.2071 18.9327 13.1677 16.9286C15.1656 14.956 17.1923 13.7498 19.9999 13.7498C22.8074 13.7498 27.5426 18.3532 27.5426 18.3532L28.7926 19.6032L30.0426 20.8532L31.2926 19.6032L32.5426 18.3532C32.5426 18.3532 37.1923 13.7498 39.9999 13.7498C42.8074 13.7498 44.7198 14.956 46.7177 16.9286C48.7052 18.9064 49.8391 21.584 49.8765 24.3878C49.9139 27.1915 48.8518 29.8984 46.9177 31.9286V32.0036Z" fill="#DB893E"/>
</svg>
