<svg width="60" height="60" viewBox="0 0 60 60" fill="none" xmlns="http://www.w3.org/2000/svg">
<path d="M44.9996 35C43.5226 35.0098 42.066 35.3467 40.7347 35.9864C39.4033 36.6262 38.2302 37.5529 37.2996 38.7L24.5496 32.825C25.1491 30.9894 25.1491 29.0107 24.5496 27.175L37.2996 21.3C38.8037 23.115 40.9005 24.3402 43.22 24.7596C45.5395 25.179 47.9327 24.7656 49.977 23.5923C52.0214 22.419 53.5856 20.5612 54.3935 18.3469C55.2015 16.1326 55.2012 13.704 54.3929 11.4898C53.5845 9.27562 52.02 7.41815 49.9754 6.24521C47.9309 5.07228 45.5377 4.65928 43.2182 5.0791C40.8988 5.49893 38.8022 6.72459 37.2985 8.53978C35.7948 10.355 34.9806 12.643 34.9996 15C35.0072 15.5956 35.0657 16.1895 35.1746 16.775L21.9746 22.85C20.5673 21.474 18.7853 20.5438 16.8517 20.1761C14.9181 19.8084 12.9189 20.0195 11.1048 20.7829C9.2906 21.5463 7.74205 22.8281 6.65314 24.4677C5.56424 26.1073 4.9834 28.0318 4.9834 30C4.9834 31.9683 5.56424 33.8928 6.65314 35.5324C7.74205 37.172 9.2906 38.4538 11.1048 39.2172C12.9189 39.9806 14.9181 40.1917 16.8517 39.824C18.7853 39.4563 20.5673 38.5261 21.9746 37.15L35.1746 43.225C35.0657 43.8106 35.0072 44.4045 34.9996 45C34.9996 46.9779 35.5861 48.9113 36.6849 50.5557C37.7838 52.2002 39.3456 53.482 41.1728 54.2388C43.0001 54.9957 45.0107 55.1937 46.9505 54.8079C48.8904 54.422 50.6722 53.4696 52.0707 52.0711C53.4692 50.6726 54.4216 48.8908 54.8075 46.9509C55.1934 45.0111 54.9953 43.0005 54.2384 41.1732C53.4816 39.3459 52.1998 37.7842 50.5553 36.6853C48.9109 35.5865 46.9775 35 44.9996 35ZM44.9996 10C45.9886 10 46.9552 10.2933 47.7775 10.8427C48.5997 11.3921 49.2406 12.173 49.619 13.0866C49.9975 14.0003 50.0965 15.0056 49.9036 15.9755C49.7106 16.9454 49.2344 17.8363 48.5352 18.5356C47.8359 19.2348 46.945 19.711 45.9751 19.904C45.0052 20.0969 43.9999 19.9979 43.0862 19.6194C42.1726 19.241 41.3917 18.6001 40.8423 17.7779C40.2929 16.9556 39.9996 15.9889 39.9996 15C39.9996 13.674 40.5264 12.4022 41.4641 11.4645C42.4018 10.5268 43.6736 10 44.9996 10ZM14.9996 35C14.0107 35 13.044 34.7068 12.2218 34.1574C11.3995 33.608 10.7587 32.8271 10.3802 31.9135C10.0018 30.9998 9.90279 29.9945 10.0957 29.0246C10.2886 28.0547 10.7648 27.1638 11.4641 26.4645C12.1634 25.7652 13.0543 25.289 14.0242 25.0961C14.9941 24.9032 15.9994 25.0022 16.9131 25.3806C17.8267 25.7591 18.6076 26.3999 19.157 27.2222C19.7064 28.0444 19.9996 29.0111 19.9996 30C19.9996 31.3261 19.4729 32.5979 18.5352 33.5356C17.5975 34.4733 16.3257 35 14.9996 35ZM44.9996 50C44.0107 50 43.044 49.7068 42.2218 49.1574C41.3995 48.608 40.7587 47.8271 40.3802 46.9135C40.0018 45.9998 39.9028 44.9945 40.0957 44.0246C40.2886 43.0547 40.7649 42.1638 41.4641 41.4645C42.1634 40.7652 43.0543 40.289 44.0242 40.0961C44.9941 39.9032 45.9994 40.0022 46.9131 40.3806C47.8267 40.7591 48.6076 41.3999 49.157 42.2222C49.7064 43.0444 49.9996 44.0111 49.9996 45C49.9996 46.3261 49.4729 47.5979 48.5352 48.5356C47.5975 49.4733 46.3257 50 44.9996 50Z" fill="#DB893E"/>
</svg>
