<svg width="60" height="60" viewBox="0 0 60 60" fill="none" xmlns="http://www.w3.org/2000/svg">
<path d="M27.5 5C22.5555 5 17.722 6.46622 13.6108 9.21326C9.49953 11.9603 6.29521 15.8648 4.40302 20.4329C2.51083 25.0011 2.01575 30.0277 2.98038 34.8773C3.94501 39.7268 6.32603 44.1814 9.82234 47.6777C13.3187 51.174 17.7732 53.555 22.6228 54.5196C27.4723 55.4843 32.4989 54.9892 37.0671 53.097C41.6353 51.2048 45.5397 48.0005 48.2867 43.8893C51.0338 39.778 52.5 34.9445 52.5 30C52.5 26.717 51.8534 23.4661 50.597 20.4329C49.3406 17.3998 47.4991 14.6438 45.1777 12.3223C42.8562 10.0009 40.1002 8.15938 37.0671 6.90301C34.034 5.64664 30.7831 5 27.5 5ZM27.5 50C23.5444 50 19.6776 48.827 16.3886 46.6294C13.0996 44.4318 10.5362 41.3082 9.02242 37.6537C7.50867 33.9991 7.1126 29.9778 7.88431 26.0982C8.65601 22.2186 10.5608 18.6549 13.3579 15.8579C16.1549 13.0608 19.7186 11.156 23.5982 10.3843C27.4778 9.61259 31.4992 10.0087 35.1537 11.5224C38.8082 13.0362 41.9318 15.5996 44.1294 18.8886C46.327 22.1776 47.5 26.0444 47.5 30C47.5 35.3043 45.3929 40.3914 41.6421 44.1421C37.8914 47.8929 32.8043 50 27.5 50ZM35.25 31.575L30 28.55V17.5C30 16.837 29.7366 16.2011 29.2678 15.7322C28.7989 15.2634 28.1631 15 27.5 15C26.837 15 26.2011 15.2634 25.7322 15.7322C25.2634 16.2011 25 16.837 25 17.5V30C25 30 25 30.2 25 30.3C25.0148 30.4723 25.057 30.641 25.125 30.8C25.1765 30.9483 25.2435 31.0908 25.325 31.225C25.3934 31.3671 25.4773 31.5012 25.575 31.625L25.975 31.95L26.2 32.175L32.7 35.925C33.081 36.141 33.5121 36.253 33.95 36.25C34.5036 36.2539 35.0427 36.0739 35.483 35.7383C35.9232 35.4028 36.2397 34.9306 36.3826 34.3958C36.5256 33.8611 36.4871 33.294 36.2731 32.7834C36.059 32.2729 35.6816 31.8479 35.2 31.575H35.25Z" fill="#3E3E3E"/>
</svg>
